#!OML:ASF H:\Dans Jumps\Project 1\Capture day 1\Session 1\subject.ASF
:FULLY-SPECIFIED
:DEGREES
605
root 0.0638559 17.4228 -7.24694 9.06253 -1.29383 -0.891412
lowerback 4.65132 0.203703 -0.686893
upperback 5.91735 0.221471 1.34922
thorax 3.48587 0.0516322 1.77261
lowerneck -13.3602 0.34764 -1.55083
upperneck 33.8116 0.923438 0.0642762
head 13.6572 0.210465 0.439795
rclavicle -2.18663e-015 -7.55382e-015
rhumerus -25.3939 -11.2161 -81.0919
rradius 27.1603
rwrist 27.9903
rhand -18.11 -23.6394
rfingers 7.12502
rthumb 8.16414 -53.4617
lclavicle -2.18663e-015 -7.55382e-015
lhumerus -24.6193 -7.73508 90.7807
lradius 26.2634
lwrist 16.6483
lhand -26.6855 -4.21096
lfingers 7.12502
lthumb -0.116291 25.7688
rfemur -23.9346 -2.7179 19.1166
rtibia 33.3993
rfoot -17.0497 -1.97511
rtoes 4.58249
lfemur -22.5548 5.8619 -17.9061
ltibia 29.7233
lfoot -14.1706 5.93798
ltoes 0.778025
606
root 0.064609 17.4227 -7.24722 9.05903 -1.29466 -0.889505
lowerback 4.64823 0.204853 -0.691015
upperback 5.91565 0.222938 1.34907
thorax 3.48576 0.0522198 1.77475
lowerneck -13.3405 0.346274 -1.56319
upperneck 33.8071 0.920222 0.0766981
head 13.6507 0.209251 0.446311
rclavicle -1.68967e-015 -1.11319e-014
rhumerus -25.3946 -11.2338 -81.0913
rradius 27.155
rwrist 28.0034
rhand -18.0934 -23.636
rfingers 7.12502
rthumb 8.18023 -53.4577
lclavicle -1.68967e-015 -1.11319e-014
lhumerus -24.6123 -7.7251 90.7907
lradius 26.2532
lwrist 16.6443
lhand -26.6522 -4.16484
lfingers 7.12502
lthumb -0.0841308 25.8149
rfemur -23.9334 -2.71386 19.111
rtibia 33.4014
rfoot -17.0499 -1.97804
rtoes 4.58197
lfemur -22.5531 5.86163 -17.9105
ltibia 29.7233
lfoot -14.168 5.93847
ltoes 0.782005
607
root 0.0653499 17.4226 -7.24748 9.05417 -1.2952 -0.89251
lowerback 4.64669 0.206087 -0.690956
upperback 5.91303 0.22457 1.35038
thorax 3.48383 0.0530367 1.77604
lowerneck -13.3162 0.344452 -1.57419
upperneck 33.8029 0.91679 0.0863912
head 13.6433 0.207762 0.451449
rclavicle 2.88238e-015 -5.1684e-015
rhumerus -25.4005 -11.2436 -81.0918
rradius 27.1546
rwrist 28.0109
rhand -18.0834 -23.6327
rfingers 7.12502
rthumb 8.1898 -53.454
lclavicle 2.88238e-015 -5.1684e-015
lhumerus -24.61 -7.72438 90.8029
lradius 26.2454
lwrist 16.6474
lhand -26.647 -4.15862
lfingers 7.12502
lthumb -0.0791855 25.8211
rfemur -23.9292 -2.7077 19.1107
rtibia 33.4015
rfoot -17.0505 -1.98222
rtoes 4.57921
lfemur -22.55 5.8631 -17.9094
ltibia 29.724
lfoot -14.1677 5.9382
ltoes 0.782002
608
root 0.0661956 17.4226 -7.24775 9.04913 -1.29366 -0.896997
lowerback 4.64582 0.206457 -0.688227
upperback 5.9105 0.225102 1.35192
thorax 3.48166 0.0534049 1.77608
lowerneck -13.2943 0.343595 -1.58322
upperneck 33.8018 0.914985 0.0940835
head 13.6379 0.206927 0.455719
rclavicle 2.98177e-016 5.36719e-015
rhumerus -25.4058 -11.2508 -81.0936
rradius 27.1537
rwrist 28.0168
rhand -18.0856 -23.6231
rfingers 7.12502
rthumb 8.18776 -53.4445
lclavicle 2.98177e-016 5.36719e-015
lhumerus -24.6085 -7.7271 90.8156
lradius 26.2398
lwrist 16.6517
lhand -26.6934 -4.23281
lfingers 7.12502
lthumb -0.123972 25.7469
rfemur -23.9226 -2.70444 19.112
rtibia 33.3984
rfoot -17.0495 -1.98469
rtoes 4.58086
lfemur -22.5467 5.86394 -17.907
ltibia 29.7252
lfoot -14.1677 5.93582
ltoes 0.7827
609
root 0.0670907 17.4226 -7.24799 9.04351 -1.29157 -0.902534
lowerback 4.64565 0.20628 -0.684566
upperback 5.90731 0.22493 1.35352
thorax 3.47842 0.0534676 1.77566
lowerneck -13.2699 0.343031 -1.59165
upperneck 33.8001 0.913075 0.102578
head 13.6317 0.20623 0.46017
rclavicle -3.18055e-015 -6.95746e-015
rhumerus -25.4128 -11.2495 -81.0977
rradius 27.1536
rwrist 28.019
rhand -18.096 -23.6102
rfingers 7.12502
rthumb 8.17765 -53.432
lclavicle -3.18055e-015 -6.95746e-015
lhumerus -24.6123 -7.73257 90.8287
lradius 26.239
lwrist 16.6531
lhand -26.7847 -4.37676
lfingers 7.12502
lthumb -0.212163 25.6029
rfemur -23.9135 -2.70124 19.1142
rtibia 33.3921
rfoot -17.0475 -1.98644
rtoes 4.59133
lfemur -22.5429 5.86437 -17.9037
ltibia 29.7269
lfoot -14.1687 5.93428
ltoes 0.779028
610
root 0.0681201 17.4226 -7.2482 9.03706 -1.28977 -0.908374
lowerback 4.64662 0.205722 -0.679434
upperback 5.90386 0.224294 1.35453
thorax 3.4743 0.053377 1.77381
lowerneck -13.2486 0.342491 -1.59544
upperneck 33.8029 0.911422 0.106868
head 13.6282 0.205623 0.462204
rclavicle 3.47873e-015 1.11319e-014
rhumerus -25.4208 -11.2476 -81.1026
rradius 27.1538
rwrist 28.0195
rhand -18.1109 -23.5992
rfingers 7.12502
rthumb 8.1633 -53.4215
lclavicle 3.47873e-015 1.11319e-014
lhumerus -24.6191 -7.74177 90.8416
lradius 26.2393
lwrist 16.6541
lhand -26.9102 -4.57831
lfingers 7.12502
lthumb -0.333329 25.4012
rfemur -23.9022 -2.69803 19.1163
rtibia 33.3833
rfoot -17.0441 -1.98854
rtoes 4.6083
lfemur -22.5378 5.86438 -17.9005
ltibia 29.7287
lfoot -14.1709 5.93279
ltoes 0.782135
